<?xml version="1.0" encoding="UTF-8"?>
<svg id="Icon2" xmlns="http://www.w3.org/2000/svg" viewBox="0 0 1920 1920">
  <defs>
    <style>
      .cls-1 {
        fill: #ffe8cc;
      }
    </style>
  </defs>
  <path class="cls-1" d="m972.9,40.49c-606.92,0-727.17,748.09-531.23,829.74,51.95,47.5,158.83,99.45,213.75,102.42,0,0,103.56,146.95,317.48,146.95s302.97-102.42,335.62-146.95c0,0,197.41-17.81,197.41-270.14S1397.23,40.49,972.9,40.49Zm274.75,766.66c-72.89,179.85-160.3,217.45-265.68,217.45-131.78,0-267.17-88.06-292.75-190.65-22.89-91.83-35.62-341.06,16.66-367.45,248.54-121.38,460.3-167.56,483.89-121.72,60.86,119.74,145.95,245.08,57.88,462.38Z"/>
  <path class="cls-1" d="m64.65,1879.51h1788.61v-256.73s51.95-182.57-362.18-381.47c0,0,0,145.46-16.33,189.99h31.17s29.69-7.42,51.95,37.11c22.26,44.53,44.53,83.12,44.53,112.81v92.03s4.45,59.37-46.01,59.37h-100.93v-102.42h50.47v-41.56l-31.17-57.89h-138.04l-28.2,53.44v43.05h46.01v103.9h-99.45s-51.95-1.48-51.95-51.95v-102.42l60.86-114.29s5.94-31.17,47.5-31.17h57.89s32.66-81.64,19.3-224.13l-63.83-19.3s-35.13-12.53-57.39,14.18l-23.09,34.3h-581.53l-22.76-35.62s-16.82-27.05-61.02-3.3h-23.75s6.6,181.42,25.73,236.17c0,0,128.64,10.56,128.64,148.43s-123.36,147.77-145.79,147.77-152.39-5.28-152.39-150.41c0-72.57,69.93-126,69.93-126,0,0-27.05-64.65-27.05-216.38,0,0-376.36,120.07-389.72,360.53v281.96Z"/>
  <circle class="cls-1" cx="559.92" cy="1581.71" r="53.93"/>
</svg>