<?xml version="1.0" encoding="UTF-8"?><svg id="Laag_2" xmlns="http://www.w3.org/2000/svg" viewBox="0 0 260.57 237.87"><defs><style>.cls-1{fill:#fff;}</style></defs><g id="Laag_1-2"><path class="cls-1" d="m54.23,72.38c4.21-3.01,7.97-6.15,11.29-9.42,3.31-3.27,6.39-6.72,9.25-10.33,1.58-1.88,3.05-3.78,4.4-5.7,1.35-1.92,2.78-3.86,4.29-5.81.75-1.05,1.54-2.01,2.37-2.88.83-.86,1.88-1.56,3.16-2.09,2.03-.83,4.1-1.02,6.21-.56,2.11.45,3.8,1.39,5.08,2.82,1.28,1.51,1.98,3.16,2.09,4.97s-.47,3.61-1.75,5.42c-6.7,10.46-14.56,19.98-23.59,28.56-.53.38-1,.77-1.41,1.19s-.81.81-1.18,1.18c-.15.15-.26.32-.34.51-.08.19-.19.47-.34.85,1.88,3.24,3.78,6.53,5.7,9.88,1.92,3.35,3.89,6.72,5.93,10.1,1.28,2.26,2.61,4.48,4.01,6.66,1.39,2.18,2.73,4.36,4.01,6.55,3.08,4.74,2.6,8.69-1.47,11.85-2.11,1.5-4.42,2.2-6.94,2.09-2.52-.11-4.68-1.11-6.49-2.99-1.28-1.5-2.37-3.05-3.27-4.63-2.63-4.36-5.23-8.75-7.79-13.15-2.56-4.4-5.15-8.78-7.79-13.15-.23-.3-.45-.58-.68-.85-.23-.26-.41-.55-.56-.85-1.43.75-2.39,1.66-2.88,2.71-.49,1.05-.7,2.3-.62,3.72.23,3.54.39,7,.51,10.38.11,3.39.24,6.77.39,10.16.15,2.86-.55,5.15-2.09,6.89-1.54,1.73-3.63,2.75-6.26,3.05-2.63.23-4.93-.34-6.88-1.69-1.96-1.35-3.2-3.39-3.72-6.09-.38-2.03-.6-4.06-.68-6.1-.68-24.23-1.35-48.38-2.03-72.46v-3.27c.23-2.33,1.15-4.27,2.77-5.81,1.62-1.54,3.63-2.39,6.04-2.54,2.41-.23,4.51.3,6.32,1.58,1.81,1.28,3.01,3.05,3.61,5.3.15.6.26,1.26.34,1.98.07.72.11,1.37.11,1.98.15,4.44.28,8.84.4,13.21.11,4.36.21,8.73.28,13.09.07.6.13,1.17.17,1.69.04.53.06,1.2.06,2.03Z"/><path class="cls-1" d="m118.56,61.21c-2.63,0-4.89-.86-6.77-2.58-1.88-1.72-2.86-3.78-2.93-6.17-.08-2.62.81-4.84,2.65-6.67,1.84-1.83,4.16-2.75,6.94-2.75,1.28,0,2.48.24,3.61.73,1.13.49,2.13,1.16,2.99,2.02.86.86,1.56,1.83,2.09,2.92.53,1.08.79,2.23.79,3.42,0,2.47-.9,4.58-2.71,6.34s-4.03,2.67-6.66,2.75Zm13.09,49.55c-.15,1.66-.64,3.12-1.47,4.4-.83,1.28-1.86,2.31-3.1,3.1s-2.63,1.28-4.18,1.47c-1.54.19-3.1-.02-4.68-.62-2.18-.83-3.72-2.07-4.63-3.72-.9-1.65-1.35-3.76-1.35-6.32,0-5.49.04-10.61.11-15.35.07-4.74-.26-9.33-1.02-13.77-.53-2.48-.3-4.68.68-6.6.98-1.92,2.56-3.33,4.74-4.23,2.18-.83,4.46-.9,6.83-.23s4.16,1.99,5.36,3.95c.98,1.81,1.65,3.76,2.03,5.87.53,5.57.86,10.97,1.02,16.2.15,5.23.04,10.52-.34,15.86Z"/><path class="cls-1" d="m179.51,59.85v-4.18c0-4.29-.04-8.54-.11-12.75-.08-4.21-.04-8.46.11-12.75.07-3.01,1.03-5.45,2.88-7.34,1.84-1.88,4.19-2.82,7.05-2.82,2.71-.07,4.95.77,6.72,2.54,1.77,1.77,2.69,4.08,2.77,6.94.23,7.22.23,14.45,0,21.67-.08,10.31-.15,20.6-.23,30.87-.08,10.27-.15,20.56-.23,30.87,0,2.26-.41,4.21-1.24,5.87-.83,1.66-1.92,2.93-3.27,3.84-1.35.9-2.93,1.37-4.74,1.41-1.81.04-3.69-.47-5.64-1.52-.9-.53-1.77-.83-2.6-.9-.83-.07-1.69-.04-2.6.11-4.67.53-9.31.24-13.94-.85-4.63-1.09-8.75-2.95-12.36-5.59-2.71-2.03-4.87-4.48-6.49-7.34-1.62-2.86-2.73-5.89-3.33-9.09-.6-3.2-.75-6.41-.45-9.65.3-3.23.98-6.28,2.03-9.14,1.35-3.54,3.22-6.81,5.59-9.82,2.37-3.01,5.12-5.47,8.24-7.39,3.12-1.92,6.55-3.2,10.27-3.84,3.72-.64,7.58-.36,11.57.85Zm-3.05,21.33c-.53-.98-1.19-1.77-1.98-2.37-.79-.6-1.64-.98-2.54-1.13-.9-.15-1.81-.09-2.71.17-.9.26-1.69.77-2.37,1.52-2.41,2.63-4.05,5.42-4.91,8.35-.87,2.93-.81,6.17.17,9.71.68,2.56,2.22,4.14,4.63,4.74,3.16.83,5.64.6,7.45-.68,1.81-1.28,3.05-3.06,3.72-5.36.68-2.29.86-4.81.56-7.56-.3-2.75-.98-5.21-2.03-7.39Z"/><path class="cls-1" d="m112.46,181.14c2.88.17,5.52.31,7.95.43,2.42.12,4.87.27,7.33.43,1.23.17,2.44.29,3.64.37,1.19.08,2.36.33,3.51.74,2.55.66,4.54,1.99,5.98,4.01,1.44,2.01,1.99,4.21,1.66,6.59-.41,2.3-1.52,4.27-3.33,5.92-1.81,1.64-4.03,2.46-6.66,2.46-2.79,0-5.59-.08-8.38-.25-2.79-.16-5.63-.33-8.5-.49h-3.08c-.08,4.27-.33,8.46-.74,12.57-.41,4.11-.41,8.26,0,12.45.25,1.73.06,3.37-.55,4.93-.62,1.56-1.5,2.85-2.65,3.88-1.15,1.03-2.55,1.79-4.19,2.28-1.64.49-3.37.53-5.18.12-2.38-.49-4.27-1.54-5.67-3.14-1.4-1.6-2.3-3.6-2.71-5.98-.33-1.15-.51-2.38-.55-3.7-.04-1.31-.06-2.59-.06-3.82.08-3.04.2-6.04.37-9,.16-2.96.29-5.92.37-8.87.41-9.94.43-19.76.06-29.46-.37-9.69-.88-19.51-1.54-29.46,0-.49-.02-.99-.06-1.48-.04-.49-.06-1.03-.06-1.6-.49-3.94.33-6.96,2.46-9.06,2.14-2.1,5.01-3.22,8.63-3.39,2.14-.16,4.31-.16,6.53,0,2.22.17,4.39.45,6.53.86,4.44.74,8.87,1.34,13.31,1.79,4.44.45,8.91.68,13.43.68,1.15,0,2.3.23,3.45.68,1.15.45,2.26.97,3.33,1.54,1.81,1.07,3.04,2.57,3.7,4.5.66,1.93.7,3.92.12,5.98-.58,1.89-1.73,3.53-3.45,4.93-1.73,1.4-3.78,2.14-6.16,2.22-2.63.08-5.28.08-7.95,0-2.67-.08-5.32-.25-7.95-.49-2.22-.16-4.44-.39-6.66-.68-2.22-.29-4.56-.59-7.03-.92-.17,5.26-.04,10.46.37,15.59.41,5.14.53,10.41.37,15.84Z"/><path class="cls-1" d="m166.72,173.89c-2.88,0-5.34-.94-7.39-2.82-2.05-1.88-3.12-4.12-3.2-6.74-.08-2.86.88-5.29,2.9-7.29,2.01-2,4.54-3,7.58-3,1.4,0,2.71.27,3.94.8,1.23.53,2.32,1.27,3.27,2.21.94.94,1.7,2,2.28,3.18.57,1.18.86,2.43.86,3.74,0,2.7-.99,5-2.96,6.92-1.97,1.92-4.4,2.92-7.27,3Zm14.3,54.11c-.17,1.81-.7,3.41-1.6,4.81-.91,1.4-2.03,2.53-3.39,3.39s-2.88,1.4-4.56,1.6c-1.69.21-3.39-.02-5.11-.68-2.38-.9-4.07-2.26-5.05-4.07-.99-1.81-1.48-4.11-1.48-6.9,0-6,.04-11.59.12-16.76.08-5.18-.29-10.19-1.11-15.04-.58-2.71-.33-5.11.74-7.21,1.07-2.1,2.79-3.64,5.18-4.62,2.38-.9,4.87-.99,7.46-.25s4.54,2.18,5.85,4.31c1.07,1.97,1.81,4.11,2.22,6.41.57,6.08.94,11.98,1.11,17.69.16,5.71.04,11.48-.37,17.32Z"/><path class="cls-1" d="m223.46,196.5c-.08,3.45.25,6.74.99,9.86.74,3.12,1.77,6.25,3.08,9.37.57,1.56,1.81,2.1,3.7,1.6.66-.16,1.36-.37,2.1-.62.74-.25,1.48-.45,2.22-.62.9-.16,1.79-.33,2.65-.49.86-.16,1.74-.2,2.65-.12,2.38,0,4.39.66,6.04,1.97,1.64,1.32,2.79,3.04,3.45,5.18.57,2.05.49,4.07-.25,6.04-.74,1.97-2.1,3.49-4.07,4.56-3.37,1.81-6.9,3.12-10.6,3.94-3.7.82-7.31.92-10.85.31-3.53-.62-6.8-2.1-9.8-4.44-3-2.34-5.44-5.85-7.33-10.54-1.23-2.88-2.16-5.9-2.77-9.06-.62-3.16-1.29-6.3-2.03-9.43-.33-1.07-.55-2.16-.68-3.27-.12-1.11-.27-2.28-.43-3.51-.91,0-1.73-.02-2.46-.06-.74-.04-1.48-.06-2.22-.06-2.88-.33-5.28-1.5-7.21-3.51-1.93-2.01-2.82-4.38-2.65-7.09.16-2.71,1.19-4.91,3.08-6.59,1.89-1.68,4.35-2.61,7.39-2.77h4.31c.33-2.71.62-5.34.86-7.89.25-2.55.53-5.09.86-7.64.16-1.15.31-2.3.43-3.45.12-1.15.27-2.3.43-3.45.66-2.88,2.1-5.13,4.31-6.78,2.22-1.64,4.81-2.26,7.76-1.85,2.88.41,5.13,1.64,6.78,3.7,1.64,2.05,2.38,4.6,2.22,7.64-.08,2.05-.27,4.07-.55,6.04-.29,1.97-.55,4.03-.8,6.16-.17.99-.27,1.97-.31,2.96-.04.99-.14,2.05-.31,3.2,1.56-.08,3.02-.18,4.38-.31,1.36-.12,2.73-.18,4.13-.18,1.64.08,3.14.47,4.5,1.17,1.36.7,2.48,1.6,3.39,2.71.9,1.11,1.54,2.36,1.91,3.76.37,1.4.39,2.88.06,4.44-.49,2.14-1.66,3.96-3.51,5.48-1.85,1.52-4.01,2.36-6.47,2.53-1.4.17-2.77.33-4.13.49-1.36.17-2.77.37-4.25.62Z"/><path class="cls-1" d="m222.08,126.22c-1.7-8.04,5.31-15.46,13.35-13.77,3.08.65,5.93,2.59,6.64,7.37,1.24,8.36-7.68,13.52-12.61,15.71-1.78.79-3.86.01-4.7-1.74-.94-1.95-2.07-4.67-2.68-7.57Z"/><path class="cls-1" d="m242.23,137.22c6.59-4.9,16.26-1.62,18.09,6.39.7,3.07.12,6.47-3.93,9.11-7.08,4.62-15.5-1.33-19.54-4.9-1.46-1.29-1.62-3.5-.38-5,1.38-1.67,3.38-3.83,5.76-5.59Z"/><path class="cls-1" d="m15.69,41.15C8.02,44.08-.4,38.3.01,30.1c.16-3.14,1.64-6.26,6.25-7.7,8.07-2.52,14.55,5.49,17.48,10.02,1.06,1.64.61,3.81-.99,4.92-1.78,1.23-4.3,2.77-7.06,3.82Z"/><path class="cls-1" d="m23.43,19.54c-5.86-5.75-4.13-15.82,3.5-18.86,2.92-1.17,6.37-1.12,9.61,2.47,5.66,6.28,1.09,15.51-1.81,20.06-1.05,1.64-3.21,2.14-4.88,1.15-1.86-1.1-4.31-2.75-6.42-4.82Z"/></g></svg>